<svg xmlns="http://www.w3.org/2000/svg" width="18.501" height="18.49" viewBox="0 0 18.501 18.49">
  <path id="Path_84667" data-name="Path 84667" d="M12.961,5.85V6.56a.711.711,0,0,1-1.422,0V5.85H9.407A.738.738,0,0,1,8.87,4.673a.712.712,0,0,1,.537-.245h2.132V3.718a.627.627,0,0,1,.036-.222.738.738,0,0,1,.689-.489.712.712,0,0,1,.7.711v.711h4.264V3.718A.627.627,0,0,1,17.26,3.5a.738.738,0,0,1,.689-.489.712.712,0,0,1,.7.711v.711h.763a2.191,2.191,0,0,1,2.079,2.1c.026,4.274,0,8.547,0,12.82a2.187,2.187,0,0,1-2.105,2.13c-4.747.029-9.495,0-14.242,0a2.194,2.194,0,0,1-2.13-2.105c-.027-4.274,0-8.547,0-12.821a2.193,2.193,0,0,1,2.13-2.13h.712V3.718A.627.627,0,0,1,5.89,3.5a.738.738,0,0,1,.689-.489.606.606,0,0,1,.221.041.736.736,0,0,1,.475.67V6.56a.711.711,0,0,1-1.422,0V5.849q-.36,0-.719,0a.737.737,0,0,0-.7.7q-.039,6.4,0,12.809a.736.736,0,0,0,.7.7q7.116.044,14.231,0a.736.736,0,0,0,.7-.7q.039-6.405,0-12.81a.73.73,0,0,0-.713-.7h-.708V6.56a.74.74,0,0,1-1.144.563.73.73,0,0,1-.278-.563V5.85ZM6.565,17.22a.711.711,0,1,1-.711.711A.712.712,0,0,1,6.565,17.22Zm2.843,0a.711.711,0,1,1-.711.711A.712.712,0,0,1,9.407,17.22Zm2.843,0a.711.711,0,1,1-.711.711A.712.712,0,0,1,12.25,17.22ZM6.565,14.378a.711.711,0,1,1-.711.711A.712.712,0,0,1,6.565,14.378Zm2.843,0a.711.711,0,1,1-.711.711A.712.712,0,0,1,9.407,14.378Zm2.843,0a.711.711,0,1,1-.711.711A.712.712,0,0,1,12.25,14.378Zm2.843,0a.711.711,0,1,1-.711.711A.712.712,0,0,1,15.093,14.378Zm2.843,0a.711.711,0,1,1-.711.711A.712.712,0,0,1,17.935,14.378ZM9.407,11.535a.711.711,0,1,1-.711.711.712.712,0,0,1,.711-.711Zm2.843,0a.711.711,0,1,1-.711.711.712.712,0,0,1,.711-.711Zm2.843,0a.711.711,0,1,1-.711.711.712.712,0,0,1,.711-.711Zm2.843,0a.711.711,0,1,1-.711.711.712.712,0,0,1,.711-.711Z" transform="translate(-3 -3.007)" fill="#888" fill-rule="evenodd"/>
</svg>
