<svg xmlns="http://www.w3.org/2000/svg" width="40" height="40" viewBox="0 0 40 40">
  <g id="Group_66836" data-name="Group 66836" transform="translate(-343.963 -164)">
    <rect id="Rectangle_23438" data-name="Rectangle 23438" width="40" height="40" rx="8" transform="translate(343.963 164)" fill="#f38328" opacity="0.2"/>
    <path id="Path_84957" data-name="Path 84957" d="M15.7,25.242a.459.459,0,0,1-.092.458l-1.3,1.473a.325.325,0,0,0-.078.238l.181,1.955a.454.454,0,0,1-.192.426.476.476,0,0,1-.465.054l-1.8-.777a.3.3,0,0,0-.125-.029.3.3,0,0,0-.125.029l-1.8.777a.474.474,0,0,1-.465-.054.458.458,0,0,1-.192-.426l.181-1.955a.329.329,0,0,0-.078-.238L8.053,25.7a.458.458,0,0,1-.092-.458.471.471,0,0,1,.344-.316l1.913-.429a.3.3,0,0,0,.2-.146l1-1.69a.484.484,0,0,1,.813,0l1,1.69a.3.3,0,0,0,.2.146l1.913.429a.458.458,0,0,1,.344.316Zm8.446-2.452v1.884a.356.356,0,0,1-.355.355H19.5a.356.356,0,0,1-.355-.355V22.79a.357.357,0,0,1,.355-.358h4.29A.357.357,0,0,1,24.142,22.79Zm0,0v1.884a.356.356,0,0,1-.355.355H19.5a.356.356,0,0,1-.355-.355V22.79a.357.357,0,0,1,.355-.358h4.29A.357.357,0,0,1,24.142,22.79Zm2.938-2.36V31.884a2.022,2.022,0,0,1-2.023,2.023H7.024A2.021,2.021,0,0,1,5,31.885V20.43a2.022,2.022,0,0,1,2.023-2.023H25.059a2.023,2.023,0,0,1,2.022,2.023ZM16.3,25.047a1.1,1.1,0,0,0-.809-.735l-1.782-.4-.93-1.572a1.1,1.1,0,0,0-1.9,0l-.933,1.572-1.782.4a1.1,1.1,0,0,0-.586,1.806l1.2,1.369-.167,1.821a1.1,1.1,0,0,0,1.536,1.115l1.675-.724,1.679.724a1.091,1.091,0,0,0,1.086-.121,1.092,1.092,0,0,0,.448-.994l-.167-1.821,1.2-1.369a1.094,1.094,0,0,0,.223-1.071ZM24.774,30.2a.317.317,0,0,0-.316-.316H18.827a.316.316,0,0,0,0,.633h5.632a.318.318,0,0,0,.315-.316Zm0-2.3a.317.317,0,0,0-.316-.316H18.827a.316.316,0,0,0,0,.633h5.632a.318.318,0,0,0,.315-.316Zm0-5.114a.99.99,0,0,0-.986-.99H19.5a.989.989,0,0,0-.986.99v1.884a.988.988,0,0,0,.986.986h4.29a.988.988,0,0,0,.986-.986Zm-.632,0v1.884a.356.356,0,0,1-.355.355H19.5a.356.356,0,0,1-.355-.355V22.79a.357.357,0,0,1,.355-.358h4.29A.357.357,0,0,1,24.143,22.79Zm0,0v1.884a.356.356,0,0,1-.355.355H19.5a.356.356,0,0,1-.355-.355V22.79a.357.357,0,0,1,.355-.358h4.29A.357.357,0,0,1,24.143,22.79Zm0,0v1.884a.356.356,0,0,1-.355.355H19.5a.356.356,0,0,1-.355-.355V22.79a.357.357,0,0,1,.355-.358h4.29A.357.357,0,0,1,24.143,22.79Z" transform="translate(347.923 158.235)" fill="#f38328"/>
  </g>
</svg>
