<svg xmlns="http://www.w3.org/2000/svg" width="40" height="40" viewBox="0 0 40 40">
  <g id="Group_66837" data-name="Group 66837" transform="translate(-32 -284)">
    <rect id="Rectangle_20920" data-name="Rectangle 20920" width="40" height="40" rx="8" transform="translate(32 284)" fill="#f38328" opacity="0.2"/>
    <path id="Path_84958" data-name="Path 84958" d="M19.717,15.46a1.434,1.434,0,0,0-1.333-.676H1.731a1.5,1.5,0,0,0-1.373.676,5.729,5.729,0,0,0-.259.617V27.5a3.367,3.367,0,0,0,.259.617,1.472,1.472,0,0,0,1.293.676H18.3a1.531,1.531,0,0,0,1.393-.676,5.729,5.729,0,0,0,.259-.617V16.077A3.3,3.3,0,0,0,19.717,15.46Zm-10.644.4h2.069a.134.134,0,0,1,.119.08v1.333H8.934V16a.113.113,0,0,1,.08-.139ZM3.423,27.716c-.04,0-.1.02-.139.02H1.294c-.119,0-.179-.02-.179-.159V26.323H3.423v1.393ZM3.5,17.171c-.02.06-.04.1-.1.119H1.254a.12.12,0,0,1-.08-.02V15.938a.132.132,0,0,1,.1-.08H3.363c.06-.02.1.02.119.08v.04c.02.4.02.8.02,1.194ZM7.3,27.716c-.06,0-.1.02-.139.02H5.173a.151.151,0,0,1-.179-.1V26.3H7.3v1.413Zm.08-10.564a.135.135,0,0,1-.08.159H5.193a.2.2,0,0,1-.139-.08V15.9H7.2a.151.151,0,0,1,.179.1v1.154Zm3.8,10.564c-.06,0-.1.02-.159.02H9.033c-.119,0-.159-.02-.159-.159V26.443a.388.388,0,0,1,.02-.139h2.288v1.413Zm.239-5.392L9.133,23.737c-.458.3-.836.08-.836-.458V20.295c0-.557.378-.756.836-.458L11.42,21.25A.592.592,0,0,1,11.42,22.324Zm3.641,5.332a.132.132,0,0,1-.1.08H12.853a.132.132,0,0,1-.1-.08V26.323h2.308Zm.08-10.5c0,.08,0,.139-.1.139H12.853V15.858h2.169a.113.113,0,0,1,.139.08V16A11.263,11.263,0,0,0,15.141,17.151Zm3.8,10.564H16.633V26.323h2.288v1.393Zm.08-10.545c0,.08-.02.139-.119.139H16.792a.12.12,0,0,1-.08-.02V15.878h2.149a.151.151,0,0,1,.179.1v.08A10.317,10.317,0,0,0,19.021,17.171Z" transform="translate(41.9 282.22)" fill="#f38328"/>
  </g>
</svg>
