<svg xmlns="http://www.w3.org/2000/svg" width="29.245" height="27.112" viewBox="0 0 29.245 27.112">
  <g id="Group_66810" data-name="Group 66810" transform="translate(-2355.179 -2068.601)">
    <path id="Path_84807" data-name="Path 84807" d="M-76.05-87.442a12.379,12.379,0,0,1-1.77,3.59,11.652,11.652,0,0,1-1.24,1.46H-96.42a12.224,12.224,0,0,1-1.23-15.72,11.836,11.836,0,0,1,2.83-2.82,13.724,13.724,0,0,0,5.71,11.86,13.728,13.728,0,0,0,13.06,1.63Z" transform="translate(2457.799 2170.156)" fill="#b48dff"/>
    <path id="Path_84808" data-name="Path 84808" d="M-74-83.01h-3.67l.36-.48a13,13,0,0,0,1.86-3.77.616.616,0,0,0-.18-.64.62.62,0,0,0-.65-.12,13.065,13.065,0,0,1-12.47-1.56A13.083,13.083,0,0,1-94.2-100.9a.613.613,0,0,0-.32-.58.63.63,0,0,0-.66.04,12.684,12.684,0,0,0-2.98,2.96,12.809,12.809,0,0,0,.36,15.47H-102a.617.617,0,0,0-.62.62.619.619,0,0,0,.62.63h28a.625.625,0,0,0,.625-.625A.625.625,0,0,0-74-83.01ZM-97.14-97.75a11.3,11.3,0,0,1,1.69-1.89,14.345,14.345,0,0,0,5.97,11.08,14.333,14.333,0,0,0,12.4,2.13,11.74,11.74,0,0,1-1.25,2.21,10.531,10.531,0,0,1-1,1.21H-96.15a11.579,11.579,0,0,1-.99-14.74ZM-77.11-78.1H-92.838a.625.625,0,0,1-.625-.625.625.625,0,0,1,.625-.625H-77.11a.625.625,0,0,1,.625.625A.625.625,0,0,1-77.11-78.1Zm-18.535,0H-98.89a.625.625,0,0,1-.625-.625.625.625,0,0,1,.625-.625h3.245a.625.625,0,0,1,.625.625A.625.625,0,0,1-95.645-78.1Zm16.461,3.661H-82a.625.625,0,0,1-.625-.625A.625.625,0,0,1-82-75.693h2.813a.625.625,0,0,1,.625.625A.625.625,0,0,1-79.184-74.443Zm-5.922,0h-11.71a.625.625,0,0,1-.625-.625.625.625,0,0,1,.625-.625h11.71a.625.625,0,0,1,.625.625A.625.625,0,0,1-85.106-74.443Z" transform="translate(2457.799 2170.156)"/>
  </g>
</svg>
