<svg xmlns="http://www.w3.org/2000/svg" width="18.501" height="18.501" viewBox="0 0 18.501 18.501">
  <g id="Group_66171" data-name="Group 66171" transform="translate(-16.4 -16.4)">
    <path id="Path_84603" data-name="Path 84603" d="M25.65,16.4a9.25,9.25,0,1,0,9.25,9.25,9.262,9.262,0,0,0-9.25-9.25Zm0,17.2A7.948,7.948,0,1,1,33.6,25.65,7.959,7.959,0,0,1,25.65,33.6Z" fill="#707070"/>
    <path id="Path_84604" data-name="Path 84604" d="M50.244,37.749H47.8v-3.8a.651.651,0,0,0-1.3,0V38.4a.66.66,0,0,0,.651.651h3.092a.651.651,0,0,0,0-1.3Z" transform="translate(-21.935 -12.316)" fill="#707070"/>
  </g>
</svg>
